<svg width="32" height="32" viewBox="0 0 32 32" fill="none" xmlns="http://www.w3.org/2000/svg">
<path fill-rule="evenodd" clip-rule="evenodd" d="M1.24512 21.1661C1.5564 21.7886 1.9922 22.4735 2.24123 22.847H12.8871L15.0661 12.4501C15.3152 11.5163 16.1245 11.0805 16.8093 11.0805H20.2957L20.607 9.39954H16.5603C15.2529 9.39954 13.7587 10.3334 13.4475 12.0143L11.5175 21.1661H1.24512" fill="white"/>
<path fill-rule="evenodd" clip-rule="evenodd" d="M30.755 21.166H21.4787L24.1557 7.96757C24.467 6.47341 24.7161 5.35278 22.6616 5.35278C21.9145 5.35278 13.3231 5.35278 12.2647 5.35278C10.4593 5.35278 10.397 6.9092 10.148 7.90531L8.03124 17.9909H0.18689C0.249146 18.6135 0.498173 19.2983 0.622687 19.6718H9.46315L11.7044 8.59014C11.8912 7.65628 11.9534 7.03372 13.1986 7.03372H21.3542C22.4126 7.03372 22.6616 7.03372 22.3503 8.40337L19.362 22.7847H29.7589C30.0701 22.4734 30.4437 21.7886 30.755 21.166Z" fill="white"/>
<path fill-rule="evenodd" clip-rule="evenodd" d="M2.24124 22.847C4.98053 26.956 10.0856 29.5708 16 29.5708C21.8521 29.5708 27.0194 26.8937 29.821 22.847H19.3619L22.3502 8.46572C22.6615 7.09607 22.3502 7.09607 21.3541 7.09607H13.1984C11.9533 7.09607 11.891 7.71864 11.7043 8.65249L9.46302 19.7342H0.622559C0.809329 20.2323 0.996099 20.7303 1.24513 21.2284H11.5175L13.4475 12.0766C13.7587 10.3957 15.2529 9.46183 16.5603 9.46183H20.607L20.2957 11.1428H16.8093C16.1245 11.1428 15.3152 11.5786 15.0661 12.5124L12.8871 22.9093H2.24124V22.847Z" fill="#DD052B"/>
<path fill-rule="evenodd" clip-rule="evenodd" d="M21.5408 21.1661L24.2179 7.96761C24.5292 6.47345 24.7782 5.35283 22.7237 5.35283C21.9766 5.35283 13.3852 5.35283 12.3268 5.35283C10.5214 5.35283 10.4591 6.90925 10.2101 7.90536L8.09338 17.991H0.18677C0.0622568 17.3061 0 16.6836 0 15.9365C0 8.40341 7.22179 2.23999 16 2.23999C24.8405 2.23999 32 8.40341 32 15.9365C32 17.8664 31.5642 19.5474 30.7549 21.2283L21.5408 21.1661Z" fill="#DD052B"/>
</svg>
