<svg width="64" height="64" viewBox="0 0 64 64" fill="none" xmlns="http://www.w3.org/2000/svg">
<path fill-rule="evenodd" clip-rule="evenodd" d="M2.49036 42.3321C3.11292 43.5773 3.98452 44.9469 4.48257 45.694H25.7744L30.1324 24.9002C30.6304 23.0325 32.2491 22.1609 33.6188 22.1609H40.5915L41.2141 18.7991H33.1207C30.5059 18.7991 27.5176 20.6668 26.895 24.0286L23.0351 42.3321H2.49036" fill="white"/>
<path fill-rule="evenodd" clip-rule="evenodd" d="M61.5098 42.3321H42.9573L48.3114 15.9353C48.9339 12.9469 49.432 10.7057 45.323 10.7057C43.8289 10.7057 26.646 10.7057 24.5293 10.7057C20.9184 10.7057 20.7939 13.8185 20.2958 15.8107L16.0624 35.9819H0.373657C0.498171 37.2271 0.996225 38.5967 1.24525 39.3438H18.9262L23.4087 17.1804C23.7822 15.3127 23.9067 14.0676 26.397 14.0676H42.7083C44.825 14.0676 45.323 14.0676 44.7005 16.8069L38.7238 45.5695H59.5176C60.1402 44.9469 60.8872 43.5773 61.5098 42.3321Z" fill="white"/>
<path fill-rule="evenodd" clip-rule="evenodd" d="M4.48247 45.6939C9.96107 53.9118 20.1712 59.1414 32 59.1414C43.7043 59.1414 54.0389 53.7873 59.642 45.6939H38.7237L44.7004 16.9313C45.3229 14.192 44.7004 14.192 42.7081 14.192H26.3969C23.9066 14.192 23.7821 15.4372 23.4085 17.3049L18.926 39.4683H1.24512C1.61866 40.4644 1.9922 41.4605 2.49025 42.4566H23.035L26.8949 24.1531C27.5175 20.7912 30.5058 18.9235 33.1206 18.9235H41.214L40.5914 22.2854H33.6187C32.249 22.2854 30.6303 23.157 30.1323 25.0247L25.7743 45.8185H4.48247V45.6939Z" fill="#DD052B"/>
<path fill-rule="evenodd" clip-rule="evenodd" d="M43.0817 42.3321L48.4358 15.9352C49.0584 12.9469 49.5564 10.7057 45.4475 10.7057C43.9533 10.7057 26.7704 10.7057 24.6537 10.7057C21.0428 10.7057 20.9183 13.8185 20.4202 15.8107L16.1868 35.9819H0.373541C0.124514 34.6123 0 33.3671 0 31.873C0 16.8068 14.4436 4.47998 32 4.47998C49.6809 4.47998 64 16.8068 64 31.873C64 35.7329 63.1284 39.0948 61.5097 42.4566L43.0817 42.3321Z" fill="#DD052B"/>
</svg>
