<svg width="16" height="16" viewBox="0 0 16 16" fill="none" xmlns="http://www.w3.org/2000/svg">
<path fill-rule="evenodd" clip-rule="evenodd" d="M0.622559 10.5831C0.778201 10.8944 0.996099 11.2368 1.12061 11.4236H6.44357L7.53306 6.22512C7.65758 5.75819 8.06225 5.5403 8.40466 5.5403H10.1478L10.3035 4.69983H8.28015C7.62645 4.69983 6.87937 5.16675 6.72373 6.00722L5.75874 10.5831H0.622559" fill="white"/>
<path fill-rule="evenodd" clip-rule="evenodd" d="M15.3774 10.583H10.7393L12.0778 3.98378C12.2335 3.2367 12.358 2.67639 11.3307 2.67639C10.9572 2.67639 6.66147 2.67639 6.13229 2.67639C5.22957 2.67639 5.19844 3.4546 5.07392 3.95266L4.01556 8.99546H0.0933838C0.124512 9.30674 0.249026 9.64915 0.311282 9.83592H4.73151L5.85213 4.29507C5.94552 3.82814 5.97665 3.51686 6.59922 3.51686H10.677C11.2062 3.51686 11.3307 3.51686 11.1751 4.20168L9.68093 11.3923H14.8794C15.035 11.2367 15.2218 10.8943 15.3774 10.583Z" fill="white"/>
<path fill-rule="evenodd" clip-rule="evenodd" d="M1.12062 11.4235C2.49027 13.4779 5.0428 14.7853 7.99999 14.7853C10.9261 14.7853 13.5097 13.4468 14.9105 11.4235H9.68093L11.1751 4.2328C11.3307 3.54797 11.1751 3.54797 10.677 3.54797H6.59922C5.97665 3.54797 5.94552 3.85926 5.85213 4.32618L4.73151 9.86704H0.311279C0.404664 10.1161 0.49805 10.3651 0.622563 10.6141H5.75875L6.72373 6.03824C6.87937 5.19778 7.62645 4.73085 8.28015 4.73085H10.3035L10.1479 5.57132H8.40466C8.06225 5.57132 7.65758 5.78922 7.53307 6.25614L6.44357 11.4546H1.12062V11.4235Z" fill="#DD052B"/>
<path fill-rule="evenodd" clip-rule="evenodd" d="M10.7704 10.583L12.1089 3.98381C12.2646 3.23673 12.3891 2.67641 11.3619 2.67641C10.9883 2.67641 6.6926 2.67641 6.16342 2.67641C5.2607 2.67641 5.22957 3.45462 5.10506 3.95268L4.04669 8.99548H0.0933852C0.0311284 8.65307 0 8.34178 0 7.96824C0 4.20171 3.61089 1.12 8 1.12C12.4202 1.12 16 4.20171 16 7.96824C16 8.93322 15.7821 9.77369 15.3774 10.6142L10.7704 10.583Z" fill="#DD052B"/>
</svg>
