<svg width="100" height="100" viewBox="0 0 100 100" fill="none" xmlns="http://www.w3.org/2000/svg">
<path fill-rule="evenodd" clip-rule="evenodd" d="M3.89111 66.1441C4.86388 68.0896 6.22574 70.2297 7.00395 71.397H40.2724L47.0818 38.9067C47.86 35.9884 50.3892 34.6266 52.5292 34.6266H63.4242L64.3969 29.3737H51.751C47.6654 29.3737 42.9962 32.2919 42.0234 37.5449L35.9923 66.1441H3.89111" fill="white"/>
<path fill-rule="evenodd" clip-rule="evenodd" d="M96.1091 66.144H67.1208L75.4866 24.8989C76.4593 20.2296 77.2375 16.7277 70.8173 16.7277C68.4827 16.7277 41.6344 16.7277 38.327 16.7277C32.685 16.7277 32.4905 21.5915 31.7123 24.7043L25.0975 56.2218H0.583862C0.778415 58.1673 1.55662 60.3074 1.94573 61.4747H29.5722L36.5761 26.8444C37.1597 23.9261 37.3543 21.9806 41.2453 21.9806H66.7317C70.0391 21.9806 70.8173 21.9806 69.8445 26.2607L60.506 71.2024H92.9963C93.969 70.2296 95.1364 68.0895 96.1091 66.144Z" fill="white"/>
<path fill-rule="evenodd" clip-rule="evenodd" d="M7.00392 71.3969C15.5642 84.2374 31.5175 92.4086 50 92.4086C68.2879 92.4086 84.4358 84.0429 93.1907 71.3969H60.5059L69.8444 26.4553C70.8171 22.1752 69.8444 22.1752 66.7315 22.1752H41.2452C37.3541 22.1752 37.1596 24.1207 36.5759 27.039L29.572 61.6693H1.94556C2.52921 63.2257 3.11287 64.7822 3.89108 66.3386H35.9922L42.0234 37.7394C42.9961 32.4865 47.6654 29.5682 51.751 29.5682H64.3969L63.4241 34.8211H52.5292C50.3891 34.8211 47.8599 36.1829 47.0817 39.1012L40.2724 71.5915H7.00392V71.3969Z" fill="#DD052B"/>
<path fill-rule="evenodd" clip-rule="evenodd" d="M67.3152 66.1439L75.6809 24.8988C76.6537 20.2296 77.4319 16.7276 71.0117 16.7276C68.677 16.7276 41.8288 16.7276 38.5214 16.7276C32.8794 16.7276 32.6848 21.5914 31.9066 24.7043L25.2918 56.2218H0.583657C0.194552 54.0817 0 52.1362 0 49.8015C0 26.2607 22.5681 7 50 7C77.6264 7 100 26.2607 100 49.8015C100 55.8327 98.6381 61.0856 96.1089 66.3385L67.3152 66.1439Z" fill="#DD052B"/>
</svg>
